<svg xmlns="http://www.w3.org/2000/svg" viewBox="0 0 800 400" width="800" height="400">
<rect width="800" height="400" fill="#0d1117"/>
<text x="400" y="24" font-family="Inter, Roboto, sans-serif" font-size="15" font-weight="700" fill="#e6edf3" text-anchor="middle">Estructura de la Presentacion Ejecutiva</text>
<text x="400" y="40" font-family="Inter, Roboto, sans-serif" font-size="10" fill="#8b949e" text-anchor="middle">5 zonas para comunicar la propuesta tecnica en 15 minutos</text>
<line x1="60" y1="47" x2="740" y2="47" stroke="#1565C0" stroke-width="1.5" opacity="0.5"/>
<rect x="20" y="58" width="138" height="292" rx="6" fill="#0c2d1c" stroke="#56d364" stroke-width="1.5"/>
<text x="89" y="78" font-family="Inter, Roboto, sans-serif" font-size="11" font-weight="700" fill="#56d364" text-anchor="middle">ZONA 1</text>
<text x="89" y="94" font-family="Inter, Roboto, sans-serif" font-size="10" font-weight="700" fill="#86efac" text-anchor="middle">Apertura</text>
<text x="89" y="109" font-family="Inter, Roboto, sans-serif" font-size="9" fill="#8b949e" text-anchor="middle">2 min</text>
<line x1="35" y1="118" x2="143" y2="118" stroke="#1e4a2a" stroke-width="1"/>
<rect x="30" y="126" width="118" height="22" rx="4" fill="#0f2210"/>
<text x="89" y="141" font-family="Inter, Roboto, sans-serif" font-size="8" fill="#86efac" text-anchor="middle">Slide 1: Portada</text>
<rect x="30" y="152" width="118" height="36" rx="4" fill="#0f2210"/>
<text x="89" y="165" font-family="Inter, Roboto, sans-serif" font-size="8" fill="#86efac" text-anchor="middle">Slide 2: El problema</text>
<text x="89" y="178" font-family="Inter, Roboto, sans-serif" font-size="8" fill="#8b949e" text-anchor="middle">del cliente</text>
<text x="89" y="214" font-family="Inter, Roboto, sans-serif" font-size="9" fill="#56d364" text-anchor="middle">Objetivo:</text>
<text x="89" y="228" font-family="Inter, Roboto, sans-serif" font-size="8" fill="#8b949e" text-anchor="middle">Captar atencion</text>
<text x="89" y="241" font-family="Inter, Roboto, sans-serif" font-size="8" fill="#8b949e" text-anchor="middle">Demostrar que</text>
<text x="89" y="254" font-family="Inter, Roboto, sans-serif" font-size="8" fill="#8b949e" text-anchor="middle">entiendes el problema</text>
<text x="89" y="303" font-family="Inter, Roboto, sans-serif" font-size="8" fill="#56d364" text-anchor="middle">2 slides</text>
<polygon points="166,204 158,199 158,209" fill="#8b949e"/>
<line x1="158" y1="204" x2="166" y2="204" stroke="#8b949e" stroke-width="1.5"/>
<rect x="168" y="58" width="138" height="292" rx="6" fill="#1a1505" stroke="#e6953a" stroke-width="1.5"/>
<text x="237" y="78" font-family="Inter, Roboto, sans-serif" font-size="11" font-weight="700" fill="#e6953a" text-anchor="middle">ZONA 2</text>
<text x="237" y="94" font-family="Inter, Roboto, sans-serif" font-size="9" font-weight="700" fill="#fde68a" text-anchor="middle">Problema y Solucion</text>
<text x="237" y="109" font-family="Inter, Roboto, sans-serif" font-size="9" fill="#8b949e" text-anchor="middle">4 min</text>
<line x1="183" y1="118" x2="291" y2="118" stroke="#3d2800" stroke-width="1"/>
<rect x="178" y="126" width="118" height="22" rx="4" fill="#1a1000"/>
<text x="237" y="141" font-family="Inter, Roboto, sans-serif" font-size="8" fill="#fde68a" text-anchor="middle">Slide 3: La solucion</text>
<rect x="178" y="152" width="118" height="22" rx="4" fill="#1a1000"/>
<text x="237" y="167" font-family="Inter, Roboto, sans-serif" font-size="8" fill="#fde68a" text-anchor="middle">Slide 4: Alcance</text>
<rect x="178" y="178" width="118" height="22" rx="4" fill="#1a1000"/>
<text x="237" y="193" font-family="Inter, Roboto, sans-serif" font-size="8" fill="#fde68a" text-anchor="middle">Slide 5: Modulos</text>
<text x="237" y="228" font-family="Inter, Roboto, sans-serif" font-size="9" fill="#e6953a" text-anchor="middle">Objetivo:</text>
<text x="237" y="241" font-family="Inter, Roboto, sans-serif" font-size="8" fill="#8b949e" text-anchor="middle">Mostrar solucion</text>
<text x="237" y="254" font-family="Inter, Roboto, sans-serif" font-size="8" fill="#8b949e" text-anchor="middle">especifica para el</text>
<text x="237" y="267" font-family="Inter, Roboto, sans-serif" font-size="8" fill="#8b949e" text-anchor="middle">cliente</text>
<text x="237" y="303" font-family="Inter, Roboto, sans-serif" font-size="8" fill="#e6953a" text-anchor="middle">3 slides</text>
<polygon points="314,204 306,199 306,209" fill="#8b949e"/>
<line x1="306" y1="204" x2="314" y2="204" stroke="#8b949e" stroke-width="1.5"/>
<rect x="316" y="58" width="138" height="292" rx="6" fill="#0f1f2e" stroke="#1565C0" stroke-width="1.5"/>
<text x="385" y="78" font-family="Inter, Roboto, sans-serif" font-size="11" font-weight="700" fill="#1565C0" text-anchor="middle">ZONA 3</text>
<text x="385" y="94" font-family="Inter, Roboto, sans-serif" font-size="10" font-weight="700" fill="#93c5fd" text-anchor="middle">Como lo Haremos</text>
<text x="385" y="109" font-family="Inter, Roboto, sans-serif" font-size="9" fill="#8b949e" text-anchor="middle">4 min</text>
<line x1="331" y1="118" x2="439" y2="118" stroke="#0f2040" stroke-width="1"/>
<rect x="326" y="126" width="118" height="22" rx="4" fill="#0a1520"/>
<text x="385" y="141" font-family="Inter, Roboto, sans-serif" font-size="8" fill="#93c5fd" text-anchor="middle">Slide 6: Equipo</text>
<rect x="326" y="152" width="118" height="22" rx="4" fill="#0a1520"/>
<text x="385" y="167" font-family="Inter, Roboto, sans-serif" font-size="8" fill="#93c5fd" text-anchor="middle">Slide 7: Cronograma</text>
<rect x="326" y="178" width="118" height="22" rx="4" fill="#0a1520"/>
<text x="385" y="193" font-family="Inter, Roboto, sans-serif" font-size="8" fill="#93c5fd" text-anchor="middle">Slide 8: Riesgos</text>
<text x="385" y="228" font-family="Inter, Roboto, sans-serif" font-size="9" fill="#60a5fa" text-anchor="middle">Objetivo:</text>
<text x="385" y="241" font-family="Inter, Roboto, sans-serif" font-size="8" fill="#8b949e" text-anchor="middle">Dar confianza de</text>
<text x="385" y="254" font-family="Inter, Roboto, sans-serif" font-size="8" fill="#8b949e" text-anchor="middle">que hay un plan</text>
<text x="385" y="267" font-family="Inter, Roboto, sans-serif" font-size="8" fill="#8b949e" text-anchor="middle">concreto</text>
<text x="385" y="303" font-family="Inter, Roboto, sans-serif" font-size="8" fill="#60a5fa" text-anchor="middle">3 slides</text>
<polygon points="462,204 454,199 454,209" fill="#8b949e"/>
<line x1="454" y1="204" x2="462" y2="204" stroke="#8b949e" stroke-width="1.5"/>
<rect x="464" y="58" width="138" height="292" rx="6" fill="#1c1436" stroke="#7c3aed" stroke-width="1.5"/>
<text x="533" y="78" font-family="Inter, Roboto, sans-serif" font-size="11" font-weight="700" fill="#7c3aed" text-anchor="middle">ZONA 4</text>
<text x="533" y="94" font-family="Inter, Roboto, sans-serif" font-size="10" font-weight="700" fill="#c4b5fd" text-anchor="middle">La Inversion</text>
<text x="533" y="109" font-family="Inter, Roboto, sans-serif" font-size="9" fill="#8b949e" text-anchor="middle">4 min</text>
<line x1="479" y1="118" x2="587" y2="118" stroke="#2a1a50" stroke-width="1"/>
<rect x="474" y="126" width="118" height="22" rx="4" fill="#150f28"/>
<text x="533" y="141" font-family="Inter, Roboto, sans-serif" font-size="8" fill="#c4b5fd" text-anchor="middle">Slide 9: Tabla costos</text>
<rect x="474" y="152" width="118" height="36" rx="4" fill="#150f28"/>
<text x="533" y="165" font-family="Inter, Roboto, sans-serif" font-size="8" fill="#c4b5fd" text-anchor="middle">Slide 10: Forma de</text>
<text x="533" y="178" font-family="Inter, Roboto, sans-serif" font-size="8" fill="#c4b5fd" text-anchor="middle">pago y garantia</text>
<text x="533" y="228" font-family="Inter, Roboto, sans-serif" font-size="9" fill="#a78bfa" text-anchor="middle">Objetivo:</text>
<text x="533" y="241" font-family="Inter, Roboto, sans-serif" font-size="8" fill="#8b949e" text-anchor="middle">Presentar precio</text>
<text x="533" y="254" font-family="Inter, Roboto, sans-serif" font-size="8" fill="#8b949e" text-anchor="middle">como inversion</text>
<text x="533" y="267" font-family="Inter, Roboto, sans-serif" font-size="8" fill="#8b949e" text-anchor="middle">justificada</text>
<text x="533" y="303" font-family="Inter, Roboto, sans-serif" font-size="8" fill="#a78bfa" text-anchor="middle">2 slides</text>
<polygon points="610,204 602,199 602,209" fill="#8b949e"/>
<line x1="602" y1="204" x2="610" y2="204" stroke="#8b949e" stroke-width="1.5"/>
<rect x="612" y="58" width="168" height="292" rx="6" fill="#1a0a05" stroke="#e6953a" stroke-width="1.5"/>
<text x="696" y="78" font-family="Inter, Roboto, sans-serif" font-size="11" font-weight="700" fill="#e6953a" text-anchor="middle">ZONA 5</text>
<text x="696" y="94" font-family="Inter, Roboto, sans-serif" font-size="10" font-weight="700" fill="#fed7aa" text-anchor="middle">Cierre</text>
<text x="696" y="109" font-family="Inter, Roboto, sans-serif" font-size="9" fill="#8b949e" text-anchor="middle">2 min</text>
<line x1="627" y1="118" x2="765" y2="118" stroke="#3d1800" stroke-width="1"/>
<rect x="622" y="126" width="148" height="22" rx="4" fill="#1a0800"/>
<text x="696" y="141" font-family="Inter, Roboto, sans-serif" font-size="8" fill="#fed7aa" text-anchor="middle">Slide 11: Por que elegirnos</text>
<rect x="622" y="152" width="148" height="22" rx="4" fill="#1a0800"/>
<text x="696" y="167" font-family="Inter, Roboto, sans-serif" font-size="8" fill="#fed7aa" text-anchor="middle">Slide 12: Proximos pasos</text>
<text x="696" y="228" font-family="Inter, Roboto, sans-serif" font-size="9" fill="#e6953a" text-anchor="middle">Objetivo:</text>
<text x="696" y="241" font-family="Inter, Roboto, sans-serif" font-size="8" fill="#8b949e" text-anchor="middle">Dejar impresion fuerte</text>
<text x="696" y="254" font-family="Inter, Roboto, sans-serif" font-size="8" fill="#8b949e" text-anchor="middle">Facilitar la decision</text>
<text x="696" y="267" font-family="Inter, Roboto, sans-serif" font-size="8" fill="#8b949e" text-anchor="middle">del cliente</text>
<text x="696" y="303" font-family="Inter, Roboto, sans-serif" font-size="8" fill="#e6953a" text-anchor="middle">2 slides</text>
<rect x="20" y="360" width="760" height="28" rx="5" fill="#161b22" stroke="#30363d" stroke-width="1"/>
<text x="400" y="378" font-family="Inter, Roboto, sans-serif" font-size="10" fill="#e6edf3" text-anchor="middle">Total recomendado: 12 diapositivas - 15 a 17 minutos de presentacion + 10 minutos de preguntas</text>
<text x="400" y="396" font-family="Inter, Roboto, sans-serif" font-size="9" fill="#6b7280" text-anchor="middle">Cadena de Formacion - Tecnologo ADSO - Semana 9 de 9</text>
</svg>
