<svg xmlns="http://www.w3.org/2000/svg" viewBox="0 0 800 560" width="800" height="560">
  <!-- Background -->
  <rect width="800" height="560" fill="#0d1117"/>

  <!-- Title -->
  <text x="400" y="36" font-family="Inter, Roboto, sans-serif" font-size="19" font-weight="700" fill="#e6edf3" text-anchor="middle">WBS — Sistema de Gestión FerreMax S.A.S.</text>
  <text x="400" y="56" font-family="Inter, Roboto, sans-serif" font-size="12" fill="#8b949e" text-anchor="middle">Estructura de Desglose del Trabajo · 2 niveles</text>

  <!-- Level 0 — Project root -->
  <rect x="250" y="70" width="300" height="44" rx="8" fill="#1565C0"/>
  <text x="400" y="88" font-family="Inter, Roboto, sans-serif" font-size="13" font-weight="700" fill="#ffffff" text-anchor="middle">Sistema de Gestión</text>
  <text x="400" y="105" font-family="Inter, Roboto, sans-serif" font-size="11" fill="#90caf9" text-anchor="middle">FerreMax S.A.S.</text>

  <!-- Vertical line from root -->
  <line x1="400" y1="114" x2="400" y2="145" stroke="#404850" stroke-width="1.5"/>
  <!-- Horizontal line - level 1 connector -->
  <line x1="75" y1="145" x2="725" y2="145" stroke="#404850" stroke-width="1.5"/>

  <!-- Level 1 — 5 modules -->
  <!-- Module 1 -->
  <line x1="75" y1="145" x2="75" y2="165" stroke="#404850" stroke-width="1.5"/>
  <rect x="20" y="165" width="110" height="40" rx="6" fill="#0d2137" stroke="#1565C0" stroke-width="1.5"/>
  <text x="75" y="181" font-family="Inter, Roboto, sans-serif" font-size="10" font-weight="600" fill="#90caf9" text-anchor="middle">1. Autenticación</text>
  <text x="75" y="196" font-family="Inter, Roboto, sans-serif" font-size="10" fill="#8b949e" text-anchor="middle">y Usuarios</text>

  <!-- Module 2 -->
  <line x1="210" y1="145" x2="210" y2="165" stroke="#404850" stroke-width="1.5"/>
  <rect x="155" y="165" width="110" height="40" rx="6" fill="#0d2137" stroke="#1565C0" stroke-width="1.5"/>
  <text x="210" y="181" font-family="Inter, Roboto, sans-serif" font-size="10" font-weight="600" fill="#90caf9" text-anchor="middle">2. Gestión de</text>
  <text x="210" y="196" font-family="Inter, Roboto, sans-serif" font-size="10" fill="#8b949e" text-anchor="middle">Inventario</text>

  <!-- Module 3 -->
  <line x1="400" y1="145" x2="400" y2="165" stroke="#404850" stroke-width="1.5"/>
  <rect x="345" y="165" width="110" height="40" rx="6" fill="#0d2137" stroke="#1565C0" stroke-width="1.5"/>
  <text x="400" y="181" font-family="Inter, Roboto, sans-serif" font-size="10" font-weight="600" fill="#90caf9" text-anchor="middle">3. Gestión de</text>
  <text x="400" y="196" font-family="Inter, Roboto, sans-serif" font-size="10" fill="#8b949e" text-anchor="middle">Clientes</text>

  <!-- Module 4 -->
  <line x1="570" y1="145" x2="570" y2="165" stroke="#404850" stroke-width="1.5"/>
  <rect x="515" y="165" width="110" height="40" rx="6" fill="#0d2137" stroke="#1565C0" stroke-width="1.5"/>
  <text x="570" y="181" font-family="Inter, Roboto, sans-serif" font-size="10" font-weight="600" fill="#90caf9" text-anchor="middle">4. Módulo</text>
  <text x="570" y="196" font-family="Inter, Roboto, sans-serif" font-size="10" fill="#8b949e" text-anchor="middle">de Ventas</text>

  <!-- Module 5 -->
  <line x1="725" y1="145" x2="725" y2="165" stroke="#404850" stroke-width="1.5"/>
  <rect x="670" y="165" width="110" height="40" rx="6" fill="#0d2137" stroke="#1565C0" stroke-width="1.5"/>
  <text x="725" y="181" font-family="Inter, Roboto, sans-serif" font-size="10" font-weight="600" fill="#90caf9" text-anchor="middle">5. Reportes</text>
  <text x="725" y="196" font-family="Inter, Roboto, sans-serif" font-size="10" fill="#8b949e" text-anchor="middle">y Docs</text>

  <!-- Level 2 — Module 1 children -->
  <line x1="75" y1="205" x2="75" y2="230" stroke="#404850" stroke-width="1"/>
  <line x1="75" y1="230" x2="75" y2="440" stroke="#404850" stroke-width="1"/>
  <!-- Sub 1.1 -->
  <line x1="75" y1="260" x2="100" y2="260" stroke="#404850" stroke-width="1"/>
  <rect x="100" y="245" width="90" height="30" rx="4" fill="#111b27" stroke="#404850" stroke-width="1"/>
  <text x="145" y="264" font-family="Inter, Roboto, sans-serif" font-size="9" fill="#c9d1d9" text-anchor="middle">1.1 Login</text>
  <!-- Sub 1.2 -->
  <line x1="75" y1="310" x2="100" y2="310" stroke="#404850" stroke-width="1"/>
  <rect x="100" y="295" width="90" height="30" rx="4" fill="#111b27" stroke="#404850" stroke-width="1"/>
  <text x="145" y="314" font-family="Inter, Roboto, sans-serif" font-size="9" fill="#c9d1d9" text-anchor="middle">1.2 Gestión usuarios</text>
  <!-- Sub 1.3 -->
  <line x1="75" y1="360" x2="100" y2="360" stroke="#404850" stroke-width="1"/>
  <rect x="100" y="345" width="90" height="30" rx="4" fill="#111b27" stroke="#404850" stroke-width="1"/>
  <text x="145" y="364" font-family="Inter, Roboto, sans-serif" font-size="9" fill="#c9d1d9" text-anchor="middle">1.3 Control roles</text>

  <!-- Level 2 — Module 2 children -->
  <line x1="210" y1="205" x2="210" y2="230" stroke="#404850" stroke-width="1"/>
  <line x1="210" y1="230" x2="210" y2="440" stroke="#404850" stroke-width="1"/>
  <line x1="210" y1="255" x2="235" y2="255" stroke="#404850" stroke-width="1"/>
  <rect x="235" y="240" width="90" height="30" rx="4" fill="#111b27" stroke="#404850" stroke-width="1"/>
  <text x="280" y="259" font-family="Inter, Roboto, sans-serif" font-size="9" fill="#c9d1d9" text-anchor="middle">2.1 CRUD productos</text>
  <line x1="210" y1="295" x2="235" y2="295" stroke="#404850" stroke-width="1"/>
  <rect x="235" y="280" width="90" height="30" rx="4" fill="#111b27" stroke="#404850" stroke-width="1"/>
  <text x="280" y="299" font-family="Inter, Roboto, sans-serif" font-size="9" fill="#c9d1d9" text-anchor="middle">2.2 Mov. inventario</text>
  <line x1="210" y1="335" x2="235" y2="335" stroke="#404850" stroke-width="1"/>
  <rect x="235" y="320" width="90" height="30" rx="4" fill="#111b27" stroke="#404850" stroke-width="1"/>
  <text x="280" y="339" font-family="Inter, Roboto, sans-serif" font-size="9" fill="#c9d1d9" text-anchor="middle">2.3 Stock y alertas</text>

  <!-- Level 2 — Module 3 children -->
  <line x1="400" y1="205" x2="400" y2="230" stroke="#404850" stroke-width="1"/>
  <line x1="400" y1="230" x2="400" y2="360" stroke="#404850" stroke-width="1"/>
  <line x1="400" y1="255" x2="425" y2="255" stroke="#404850" stroke-width="1"/>
  <rect x="425" y="240" width="90" height="30" rx="4" fill="#111b27" stroke="#404850" stroke-width="1"/>
  <text x="470" y="259" font-family="Inter, Roboto, sans-serif" font-size="9" fill="#c9d1d9" text-anchor="middle">3.1 CRUD clientes</text>
  <line x1="400" y1="305" x2="425" y2="305" stroke="#404850" stroke-width="1"/>
  <rect x="425" y="290" width="90" height="30" rx="4" fill="#111b27" stroke="#404850" stroke-width="1"/>
  <text x="470" y="309" font-family="Inter, Roboto, sans-serif" font-size="9" fill="#c9d1d9" text-anchor="middle">3.2 Búsqueda</text>

  <!-- Level 2 — Module 4 children -->
  <line x1="570" y1="205" x2="570" y2="230" stroke="#404850" stroke-width="1"/>
  <line x1="570" y1="230" x2="570" y2="400" stroke="#404850" stroke-width="1"/>
  <line x1="570" y1="255" x2="595" y2="255" stroke="#404850" stroke-width="1"/>
  <rect x="595" y="240" width="90" height="30" rx="4" fill="#111b27" stroke="#404850" stroke-width="1"/>
  <text x="640" y="259" font-family="Inter, Roboto, sans-serif" font-size="9" fill="#c9d1d9" text-anchor="middle">4.1 Nueva venta</text>
  <line x1="570" y1="295" x2="595" y2="295" stroke="#404850" stroke-width="1"/>
  <rect x="595" y="280" width="90" height="30" rx="4" fill="#111b27" stroke="#404850" stroke-width="1"/>
  <text x="640" y="299" font-family="Inter, Roboto, sans-serif" font-size="9" fill="#c9d1d9" text-anchor="middle">4.2 Cálculo total</text>
  <line x1="570" y1="335" x2="595" y2="335" stroke="#404850" stroke-width="1"/>
  <rect x="595" y="320" width="90" height="30" rx="4" fill="#111b27" stroke="#404850" stroke-width="1"/>
  <text x="640" y="339" font-family="Inter, Roboto, sans-serif" font-size="9" fill="#c9d1d9" text-anchor="middle">4.3 Descuenta stock</text>

  <!-- Level 2 — Module 5 children -->
  <line x1="725" y1="205" x2="725" y2="230" stroke="#404850" stroke-width="1"/>
  <line x1="725" y1="230" x2="725" y2="360" stroke="#404850" stroke-width="1"/>
  <line x1="725" y1="255" x2="700" y2="255" stroke="#404850" stroke-width="1"/>
  <rect x="620" y="240" width="80" height="30" rx="4" fill="#111b27" stroke="#404850" stroke-width="1"/>
  <text x="660" y="259" font-family="Inter, Roboto, sans-serif" font-size="9" fill="#c9d1d9" text-anchor="middle">5.1 Rpte ventas</text>
  <line x1="725" y1="300" x2="700" y2="300" stroke="#404850" stroke-width="1"/>
  <rect x="620" y="285" width="80" height="30" rx="4" fill="#111b27" stroke="#404850" stroke-width="1"/>
  <text x="660" y="304" font-family="Inter, Roboto, sans-serif" font-size="9" fill="#c9d1d9" text-anchor="middle">5.2 Rpte inventario</text>

  <!-- Level labels -->
  <text x="16" y="96" font-family="Inter, Roboto, sans-serif" font-size="9" fill="#484f58" transform="rotate(-90, 16, 96)">Nivel 0</text>
  <text x="16" y="188" font-family="Inter, Roboto, sans-serif" font-size="9" fill="#484f58" transform="rotate(-90, 16, 188)">Nivel 1</text>
  <text x="16" y="305" font-family="Inter, Roboto, sans-serif" font-size="9" fill="#484f58" transform="rotate(-90, 16, 305)">Nivel 2</text>

  <!-- Footer -->
  <text x="400" y="530" font-family="Inter, Roboto, sans-serif" font-size="11" fill="#8b949e" text-anchor="middle">El WBS descompone los ENTREGABLES del proyecto — no las tareas diarias del equipo.</text>
  <text x="400" y="548" font-family="Inter, Roboto, sans-serif" font-size="10" fill="#484f58" text-anchor="middle">Semana 03 · Cadena de Formación · Tecnólogo ADSO</text>
</svg>
